<svg xmlns="http://www.w3.org/2000/svg" width="24" height="24" viewBox="0 0 24 24"><path d="M14 19h-4a.5.5 0 0 0 0 1h4a.5.5 0 0 0 0-1zm0 2h-4a.5.5 0 0 0 0 1h4a.5.5 0 0 0 0-1zm.25 2h-4.5l1.188.782c.154.138.38.218.615.218h.895c.234 0 .46-.08.615-.218L14.25 23zM18 9.2c0 3.57-3.214 5.984-3.214 8.8h-1.99c-.002-1.858.87-3.39 1.722-4.867C15.278 11.808 16 10.556 16 9.2c0-2.59-2.075-3.77-4.003-3.77C10.072 5.43 8 6.61 8 9.2c0 1.356.72 2.608 1.482 3.933.85 1.478 1.725 3.01 1.72 4.867H9.214C9.214 15.184 6 12.77 6 9.2c0-3.722 2.998-5.77 5.997-5.77 3 0 6.003 2.05 6.003 5.77zm4-.69v1.372h-2.538c.02-.223.038-.448.038-.68a8.54 8.54 0 0 0-.035-.69H22zM11.352 1.957V0h1.37v1.964a7.73 7.73 0 0 0-1.37-.007zM7.61 3.25L6.57 1.31 7.776.664l1.037 1.933c-.418.18-.822.4-1.205.655zm10.585 1.736l1.942-1.394.8 1.115L18.88 6.18a6.697 6.697 0 0 0-.687-1.194zm-3.01-2.39L16.223.664l1.208.648-1.04 1.942a7.763 7.763 0 0 0-1.2-.654zM5.117 6.18L3.063 4.708l.8-1.115 1.94 1.393a6.688 6.688 0 0 0-.686 1.194zm13.707 6.223l2.354.954-.514 1.27-2.425-.98c.21-.398.4-.813.58-1.244zM5.716 13.558l-2.356 1.06-.562-1.25 2.34-1.053c.173.433.37.845.578 1.243zM4.538 9.882H2V8.51h2.535a8.612 8.612 0 0 0-.035.69c0 .234.018.46.038.682z"/></svg>