<svg xmlns="http://www.w3.org/2000/svg" width="24" height="24" viewBox="0 0 24 24"><path d="M10 2H8V0h2v2zM2 8H0v2h2V8zm0-5a1 1 0 0 1 1-1h4V0H3a3 3 0 0 0-3 3v4h2V3zm0 8H0v2h2v-2zM16 0h-2v2h2V0zm-3 0h-2v2h2V0zM2 14H0v2h2v-2zm18-2.042h-2.277l-2.36 5.386-2.883-7.93-2.442 5.78-2.07-4.14-1.13 1.966H4V20h16v-8.042zM4 12.02h2.26l1.767-3.08 1.935 3.866 2.59-6.126 2.898 7.976 1.62-3.697H20V4H4v8.02zM14 24h2v-2h-2v2zm8-11h2v-2h-2v2zM2 21v-4H0v4a3 3 0 0 0 3 3h4v-2H3a1 1 0 0 1-1-1zm20 0a1 1 0 0 1-1 1h-4v2h4a3 3 0 0 0 3-3v-4h-2v4zm0-11h2V8h-2v2zm0 6h2v-2h-2v2zm2-13a3 3 0 0 0-3-3h-4v2h4a1 1 0 0 1 1 1v4h2V3zM8 24h2v-2H8v2zm3 0h2v-2h-2v2z"/></svg>